<svg width="800" height="800" viewBox="0 0 800 800" fill="none" xmlns="http://www.w3.org/2000/svg">
<g clip-path="url(#clip0_1_136)">
<path d="M794.316 354.198L674.644 298.46C673.344 297.855 671.926 297.54 670.492 297.54H613.115C611.681 297.54 610.263 297.853 608.963 298.46L562.294 320.193V299.18H578.687C583.01 299.18 586.827 296.357 588.092 292.224C589.358 288.091 587.777 283.616 584.197 281.195L550 258.075V177.868C550 172.437 545.596 168.032 540.164 168.032H494.263C488.832 168.032 484.427 172.437 484.427 177.868V213.744L467.804 202.506C466.178 201.406 464.258 200.819 462.296 200.819H337.706C335.742 200.819 333.824 201.406 332.198 202.506L315.575 213.744V177.868C315.575 172.437 311.17 168.032 305.739 168.032H259.837C254.406 168.032 250.001 172.437 250.001 177.868V258.077L215.804 281.196C212.222 283.617 210.642 288.093 211.909 292.226C213.175 296.358 216.991 299.181 221.314 299.181H237.708V320.193L191.041 298.46C189.741 297.855 188.322 297.54 186.888 297.54H129.508C128.073 297.54 126.655 297.853 125.355 298.46L5.68351 354.198C1.50155 356.145 -0.764017 360.737 0.232702 365.24C1.23106 369.745 5.22286 372.95 9.83596 372.95H24.59V622.13C24.59 627.561 28.9949 631.966 34.4261 631.966H765.572C771.003 631.966 775.408 627.561 775.408 622.13V372.95H790.162C794.775 372.95 798.769 369.745 799.765 365.24C800.764 360.737 798.497 356.145 794.316 354.198ZM615.292 317.212H668.313L745.748 353.278H562.294V341.893L615.292 317.212ZM712.294 433.606H600.818V409.016H712.294V433.606ZM755.736 453.278V471.311H562.294V453.278H755.736ZM504.097 187.705H530.327V244.777L504.097 227.044V187.705ZM340.717 220.491H459.281L546.576 279.508H253.422L340.717 220.491ZM269.671 187.705H295.901V227.044L269.671 244.777V187.705ZM44.2621 453.278H237.704V471.311H44.2621V453.278ZM196.721 433.606H85.2456V409.016H196.721V433.606ZM131.687 317.212H184.708L237.704 341.894V353.28H54.2523L131.687 317.212ZM237.704 372.95V433.606H216.393V399.18C216.393 393.748 211.988 389.343 206.557 389.343H75.4096C69.9785 389.343 65.5736 393.748 65.5736 399.18V433.606H44.2621V372.95H237.704ZM44.2621 490.983H237.704V612.294H44.2621V490.983ZM327.868 612.294H286.885V526.228C286.885 514.928 296.076 505.737 307.376 505.737C318.676 505.737 327.868 514.93 327.868 526.228V612.294ZM420.491 612.294H379.507V526.228C379.507 514.928 388.699 505.737 399.999 505.737C411.299 505.737 420.491 514.928 420.491 526.228V612.294ZM513.114 612.294H472.13V526.228C472.13 514.928 481.322 505.737 492.622 505.737C503.922 505.737 513.114 514.93 513.114 526.228V612.294ZM532.786 612.294V526.228C532.786 504.081 514.768 486.065 492.622 486.065C470.476 486.065 452.458 504.083 452.458 526.228V612.294H440.163V526.228C440.163 504.081 422.145 486.065 399.999 486.065C377.853 486.065 359.835 504.081 359.835 526.228V612.294H347.54V526.228C347.54 504.081 329.522 486.065 307.376 486.065C285.23 486.065 267.212 504.083 267.212 526.228V612.294H257.376V299.18H542.622V612.294H532.786ZM562.294 612.294V490.983H755.736V612.294H562.294ZM755.736 433.606H731.966V399.18C731.966 393.748 727.561 389.343 722.13 389.343H590.982C585.551 389.343 581.146 393.748 581.146 399.18V433.606H562.294V372.95H755.736V433.606Z" fill="#3197CD"/>
<path d="M307.376 320.491C285.23 320.491 267.212 338.508 267.212 360.655V431.966C267.212 437.397 271.617 441.802 277.048 441.802H337.704C343.135 441.802 347.54 437.397 347.54 431.966V360.655C347.54 338.509 329.524 320.491 307.376 320.491ZM327.868 422.13H286.884V360.655C286.884 349.355 296.076 340.163 307.376 340.163C318.676 340.163 327.868 349.357 327.868 360.655V422.13Z" fill="#3197CD"/>
<path d="M399.999 320.491C377.853 320.491 359.835 338.508 359.835 360.655V431.966C359.835 437.397 364.24 441.802 369.671 441.802H430.327C435.758 441.802 440.163 437.397 440.163 431.966V360.655C440.163 338.509 422.147 320.491 399.999 320.491ZM420.491 422.13H379.508V360.655C379.508 349.355 388.699 340.163 399.999 340.163C411.299 340.163 420.491 349.355 420.491 360.655V422.13Z" fill="#3197CD"/>
<path d="M492.622 320.491C470.476 320.491 452.458 338.508 452.458 360.655V431.966C452.458 437.397 456.863 441.802 462.294 441.802H522.95C528.381 441.802 532.786 437.397 532.786 431.966V360.655C532.786 338.509 514.769 320.491 492.622 320.491ZM513.114 422.13H472.13V360.655C472.13 349.355 481.322 340.163 492.622 340.163C503.922 340.163 513.114 349.357 513.114 360.655V422.13Z" fill="#3197CD"/>
<path d="M218.852 504.097H154.918C149.486 504.097 145.082 508.502 145.082 513.933V577.868C145.082 583.299 149.486 587.704 154.918 587.704H218.852C224.283 587.704 228.688 583.299 228.688 577.868V513.933C228.688 508.502 224.285 504.097 218.852 504.097ZM209.016 568.032H164.754V523.769H209.016V568.032Z" fill="#3197CD"/>
<path d="M127.049 504.097H63.1146C57.6835 504.097 53.2786 508.502 53.2786 513.933V577.868C53.2786 583.299 57.6835 587.704 63.1146 587.704H127.049C132.48 587.704 136.885 583.299 136.885 577.868V513.933C136.885 508.502 132.482 504.097 127.049 504.097ZM117.213 568.032H72.9507V523.769H117.213V568.032Z" fill="#3197CD"/>
<path d="M734.425 504.097H670.49C665.059 504.097 660.654 508.502 660.654 513.933V577.868C660.654 583.299 665.059 587.704 670.49 587.704H734.425C739.856 587.704 744.261 583.299 744.261 577.868V513.933C744.261 508.502 739.857 504.097 734.425 504.097ZM724.589 568.032H680.326V523.769H724.589V568.032Z" fill="#3197CD"/>
<path d="M642.621 504.097H578.687C573.256 504.097 568.851 508.502 568.851 513.933V577.868C568.851 583.299 573.256 587.704 578.687 587.704H642.621C648.053 587.704 652.457 583.299 652.457 577.868V513.933C652.457 508.502 648.054 504.097 642.621 504.097ZM632.785 568.032H588.523V523.769H632.785V568.032Z" fill="#3197CD"/>
</g>
<defs>
<clipPath id="clip0_1_136">
<rect width="800" height="800" fill="white"/>
</clipPath>
</defs>
</svg>
