<svg width="800" height="800" viewBox="0 0 800 800" fill="none" xmlns="http://www.w3.org/2000/svg">
<g clip-path="url(#clip0_1_126)">
<path d="M286.214 222.546H364.831C370.644 222.546 375.358 217.832 375.358 212.019V87.7193C375.358 81.907 370.644 77.193 364.831 77.193H286.214C280.402 77.193 275.688 81.907 275.688 87.7193V212.019C275.688 217.833 280.4 222.546 286.214 222.546ZM296.74 131.579H315.002V201.493H296.74V131.579ZM336.052 201.493V131.579H354.303V201.493H336.052ZM354.303 98.2456V110.526H296.738V98.2456H354.303Z" fill="#F8957B"/>
<path d="M435.17 222.546H513.787C519.6 222.546 524.314 217.832 524.314 212.019V87.7193C524.314 81.907 519.6 77.193 513.787 77.193H435.17C429.358 77.193 424.644 81.907 424.644 87.7193V212.019C424.644 217.833 429.358 222.546 435.17 222.546ZM445.696 131.579H463.952V201.493H445.696V131.579ZM485.005 201.493V131.579H503.261V201.493H485.005ZM503.261 98.2456V110.526H445.696V98.2456H503.261Z" fill="#F8957B"/>
<path d="M286.214 391.639H364.831C370.644 391.639 375.358 386.925 375.358 381.112V256.812C375.358 251 370.644 246.286 364.831 246.286H286.214C280.402 246.286 275.688 251 275.688 256.812V381.112C275.688 386.925 280.4 391.639 286.214 391.639ZM296.74 301.17H315.002V370.586H296.74V301.17ZM336.052 370.586V301.17H354.303V370.586H336.052ZM354.303 267.339V280.118H296.738V267.339H354.303Z" fill="#F8957B"/>
<path d="M435.17 391.639H513.787C519.6 391.639 524.314 386.925 524.314 381.112V256.812C524.314 251 519.6 246.286 513.787 246.286H435.17C429.358 246.286 424.644 251 424.644 256.812V381.112C424.644 386.925 429.358 391.639 435.17 391.639ZM445.696 301.17H463.952V370.586H445.696V301.17ZM485.005 370.586V301.17H503.261V370.586H485.005ZM503.261 267.339V280.118H445.696V267.339H503.261Z" fill="#F8957B"/>
<path d="M286.214 560.732H364.831C370.644 560.732 375.358 556.018 375.358 550.205V425.905C375.358 420.093 370.644 415.379 364.831 415.379H286.214C280.402 415.379 275.688 420.093 275.688 425.905V550.205C275.688 556.018 280.4 560.732 286.214 560.732ZM296.74 470.76H315.002V539.679H296.74V470.76ZM336.052 539.679V470.76H354.303V539.679H336.052ZM354.303 436.432V449.707H296.738V436.432H354.303Z" fill="#F8957B"/>
<path d="M435.17 560.732H513.787C519.6 560.732 524.314 556.018 524.314 550.205V425.905C524.314 420.093 519.6 415.379 513.787 415.379H435.17C429.358 415.379 424.644 420.093 424.644 425.905V550.205C424.644 556.018 429.358 560.732 435.17 560.732ZM445.696 470.76H463.952V539.679H445.696V470.76ZM485.005 539.679V470.76H503.261V539.679H485.005ZM503.261 436.432V449.707H445.696V436.432H503.261Z" fill="#F8957B"/>
<path d="M286.214 729.825H364.831C370.644 729.825 375.358 725.111 375.358 719.298V594.998C375.358 589.186 370.644 584.472 364.831 584.472H286.214C280.402 584.472 275.688 589.186 275.688 594.998V719.298C275.688 725.111 280.4 729.825 286.214 729.825ZM296.74 640.351H315.002V708.772H296.74V640.351ZM336.052 708.772V640.351H354.303V708.772H336.052ZM354.303 605.525V619.298H296.738V605.525H354.303Z" fill="#F8957B"/>
<path d="M619.298 3.8147e-06H180.702C174.888 3.8147e-06 170.175 4.71228 170.175 10.5263V45.614C170.175 51.4281 174.888 56.1404 180.702 56.1404H211.552V789.474C211.552 795.288 216.265 800 222.079 800H577.923C583.735 800 588.449 795.288 588.449 789.474V56.1404H619.298C625.112 56.1404 629.824 51.4281 629.824 45.614V10.5263C629.824 4.71228 625.112 3.8147e-06 619.298 3.8147e-06ZM503.261 655.104C501.43 653.563 499.07 652.632 496.491 652.632C490.679 652.632 485.965 657.346 485.965 663.158V682.456C485.965 688.268 490.679 692.982 496.491 692.982C499.07 692.982 501.43 692.051 503.261 690.511V745.614H445.696V605.526H503.261V655.104ZM445.696 766.667H503.261V778.947H445.696V766.667ZM567.396 778.947H524.314V605.526H528.865C534.677 605.526 539.391 600.812 539.391 595C539.391 589.188 534.677 584.474 528.865 584.474H420.093C414.281 584.474 409.567 589.188 409.567 595C409.567 600.812 414.281 605.526 420.093 605.526H424.644V778.947H232.605V56.1404H567.396V778.947ZM608.772 35.0877H191.228V21.0526H608.772V35.0877Z" fill="#F8957B"/>
</g>
<defs>
<clipPath id="clip0_1_126">
<rect width="800" height="800" fill="white"/>
</clipPath>
</defs>
</svg>
