<svg width="800" height="800" viewBox="0 0 800 800" fill="none" xmlns="http://www.w3.org/2000/svg">
<g clip-path="url(#clip0_1_146)">
<path d="M789.543 221.612H379.817L286.604 146.707C282.778 143.632 277.33 143.632 273.502 146.707L198.693 206.824V186.754C198.693 180.98 194.01 176.296 188.235 176.296H106.318C100.544 176.296 95.8606 180.98 95.8606 186.754V289.459L3.90767 363.352C0.449714 366.132 -0.880134 370.79 0.594376 374.975C2.06889 379.16 6.02008 381.961 10.4576 381.961H59.2593V645.142C59.2593 650.916 63.9408 655.599 69.7168 655.599H789.543C795.319 655.599 800 650.916 800 645.142V232.07C800 226.294 795.319 221.612 789.543 221.612ZM779.085 242.527V361.046H553.33L405.844 242.527H779.085ZM116.776 197.211H177.778V223.631L116.776 272.652V197.211ZM280.054 168.274L519.943 361.046H497.689L286.609 191.423C282.784 188.349 277.335 188.349 273.508 191.423L62.4297 361.046H40.1656L280.054 168.274ZM404.357 634.684H341.612V474.336H404.357V634.684ZM733.769 499.608H535.076V474.336H733.769V499.608ZM535.076 520.523H733.769V544.052H535.076V520.523ZM535.076 564.967H733.769V588.497H535.076V564.967ZM535.076 609.412H733.769V634.684H535.076V609.412ZM779.085 634.684H754.684V463.878C754.684 458.104 750.001 453.42 744.227 453.42H524.619C518.845 453.42 514.161 458.104 514.161 463.878V634.684H425.272V463.878C425.272 458.104 420.591 453.42 414.815 453.42H331.155C325.379 453.42 320.697 458.104 320.697 463.878V634.684H80.1743V373.616L280.059 212.99L487.458 379.655C489.314 381.147 491.627 381.961 494.008 381.961H779.085V634.684Z" fill="#4EC58C"/>
<path d="M244.009 429.02H141.177C135.402 429.02 130.719 433.703 130.719 439.477V542.309C130.719 548.084 135.402 552.767 141.177 552.767H244.009C249.783 552.767 254.466 548.084 254.466 542.309V439.477C254.466 433.701 249.785 429.02 244.009 429.02ZM151.634 449.935H189.978V531.852H151.634V449.935ZM233.551 531.852H210.893V449.935H233.551V531.852Z" fill="#4EC58C"/>
</g>
<defs>
<clipPath id="clip0_1_146">
<rect width="800" height="800" fill="white"/>
</clipPath>
</defs>
</svg>
