<svg width="800" height="800" viewBox="0 0 800 800" fill="none" xmlns="http://www.w3.org/2000/svg">
<g clip-path="url(#clip0_1_150)">
<path d="M133.963 313.222H83.6297C78.1877 313.222 73.7739 317.635 73.7739 323.077V392.102C73.7739 397.544 78.1877 401.958 83.6297 401.958H133.962C139.404 401.958 143.817 397.544 143.817 392.102V323.077C143.819 317.635 139.405 313.222 133.963 313.222ZM124.107 332.933V339.106H93.4855V332.933H124.107ZM93.4855 382.248V358.818H124.106V382.248H93.4855Z" fill="#F5CA7D"/>
<path d="M188.609 401.96H238.942C244.384 401.96 248.798 397.546 248.798 392.104V323.079C248.798 317.637 244.384 313.223 238.942 313.223H188.609C183.167 313.223 178.753 317.637 178.753 323.079V392.104C178.753 397.546 183.167 401.96 188.609 401.96ZM198.464 382.248V358.818H229.086V382.248H198.464ZM229.086 332.933V339.106H198.464V332.933H229.086Z" fill="#F5CA7D"/>
<path d="M133.963 419.639H83.6297C78.1877 419.639 73.7739 424.053 73.7739 429.495V498.522C73.7739 503.964 78.1877 508.377 83.6297 508.377H133.962C139.404 508.377 143.817 503.964 143.817 498.522V429.495C143.819 424.051 139.405 419.639 133.963 419.639ZM124.107 439.351V445.524H93.4855V439.351H124.107ZM93.4855 488.666V465.234H124.106V488.666H93.4855Z" fill="#F5CA7D"/>
<path d="M372.682 346.077H322.35C316.908 346.077 312.494 350.491 312.494 355.933V424.96C312.494 430.402 316.908 434.816 322.35 434.816H372.682C378.124 434.816 382.537 430.402 382.537 424.96V355.933C382.537 350.491 378.124 346.077 372.682 346.077ZM362.826 365.789V371.964H332.206V365.789H362.826ZM332.206 415.106V391.675H362.826V415.106H332.206Z" fill="#F5CA7D"/>
<path d="M477.66 346.077H427.327C421.885 346.077 417.471 350.491 417.471 355.933V424.96C417.471 430.402 421.885 434.816 427.327 434.816H477.66C483.102 434.816 487.516 430.402 487.516 424.96V355.933C487.516 350.491 483.102 346.077 477.66 346.077ZM467.805 365.789V371.964H437.183V365.789H467.805ZM437.183 415.106V391.675H467.805V415.106H437.183Z" fill="#F5CA7D"/>
<path d="M372.682 452.497H322.35C316.908 452.497 312.494 456.911 312.494 462.353V531.378C312.494 536.82 316.908 541.233 322.35 541.233H372.682C378.124 541.233 382.537 536.82 382.537 531.378V462.353C382.537 456.909 378.124 452.497 372.682 452.497ZM362.826 472.208V478.381H332.206V472.208H362.826ZM332.206 521.522V498.091H362.826V521.522H332.206Z" fill="#F5CA7D"/>
<path d="M561.068 467.893H611.4C616.842 467.893 621.256 463.479 621.256 458.037V389.011C621.256 383.569 616.842 379.155 611.4 379.155H561.068C555.626 379.155 551.212 383.569 551.212 389.011V458.037C551.212 463.479 555.625 467.893 561.068 467.893ZM570.924 448.182V424.751H601.544V448.182H570.924ZM601.544 398.865V405.04H570.924V398.865H601.544Z" fill="#F5CA7D"/>
<path d="M666.045 467.893H716.379C721.821 467.893 726.234 463.479 726.234 458.037V389.011C726.234 383.569 721.821 379.155 716.379 379.155H666.045C660.603 379.155 656.189 383.569 656.189 389.011V458.037C656.189 463.479 660.603 467.893 666.045 467.893ZM675.901 448.182V424.751H706.523V448.182H675.901ZM706.523 398.865V405.04H675.901V398.865H706.523Z" fill="#F5CA7D"/>
<path d="M561.068 574.309H611.4C616.842 574.309 621.256 569.896 621.256 564.454V495.429C621.256 489.987 616.842 485.573 611.4 485.573H561.068C555.626 485.573 551.212 489.987 551.212 495.429V564.454C551.212 569.896 555.625 574.309 561.068 574.309ZM570.924 554.598V531.167H601.544V554.598H570.924ZM601.544 505.283V511.456H570.924V505.283H601.544Z" fill="#F5CA7D"/>
<path d="M791.455 609.522L773.95 607.172V362.908H786.844C792.286 362.908 796.7 358.494 796.7 353.052V246.644C796.7 241.202 792.286 236.788 786.844 236.788H557.977V213.56C557.977 208.118 553.563 203.704 548.121 203.704H319.262V180.707C319.262 175.265 314.849 170.852 309.406 170.852H13.1641C7.72047 170.852 3.30837 175.265 3.30837 180.707V287.125C3.30837 292.567 7.72047 296.981 13.1641 296.981H26.0588V506.768L11.1684 504.769C5.7756 504.034 0.813216 507.83 0.0888167 513.225C-0.635583 518.619 3.15068 523.58 8.54507 524.303L788.83 629.055C789.275 629.116 789.717 629.145 790.154 629.145C795.013 629.145 799.244 625.549 799.91 620.599C800.636 615.206 796.85 610.247 791.455 609.522ZM754.236 604.527L743.494 603.085V583.153C743.494 577.711 739.08 573.297 733.638 573.297H726.233V495.429C726.233 489.987 721.819 485.573 716.377 485.573H666.044C660.602 485.573 656.188 489.987 656.188 495.429V573.297H648.794C643.352 573.297 638.939 577.711 638.939 583.153V589.049L535.239 575.127V362.908H754.235V604.527H754.236ZM706.523 573.297H675.901V505.284H706.523V573.297ZM723.784 593.009V600.439L668.44 593.009H723.784ZM467.805 540.215H437.183V472.208H467.805V540.215ZM485.06 559.926V568.389L422.02 559.926H485.06ZM494.916 540.215H487.516V462.353C487.516 456.911 483.102 452.497 477.66 452.497H427.327C421.885 452.497 417.471 456.911 417.471 462.353V540.215H410.073C404.631 540.215 400.217 544.629 400.217 550.071V556.999L296.518 543.078V329.843H515.53V572.481L504.77 571.037V550.072C504.772 544.627 500.358 540.215 494.916 540.215ZM557.975 319.988V256.502H776.987V343.198H535.241V329.843H548.119C553.563 329.843 557.975 325.43 557.975 319.988ZM319.262 287.127V223.417H538.263V310.132H296.518V296.982H309.406C314.849 296.982 319.262 292.569 319.262 287.127ZM23.0199 190.565H299.55V277.271H36.0739C36.0213 277.271 35.9688 277.263 35.9146 277.263C35.8604 277.263 35.8094 277.269 35.7552 277.271H23.0199V190.565ZM45.772 296.982H276.808V540.432L266.049 538.988V517.218C266.049 511.776 261.635 507.362 256.193 507.362H248.798V429.495C248.798 424.053 244.384 419.639 238.942 419.639H188.608C183.166 419.639 178.753 424.053 178.753 429.495V507.362H171.351C165.909 507.362 161.495 511.776 161.495 517.218V524.952L45.772 509.416V296.982ZM229.086 507.362H198.464V439.351H229.086V507.362ZM181.207 527.074H246.337V536.342L181.207 527.598V527.074Z" fill="#F5CA7D"/>
</g>
<defs>
<clipPath id="clip0_1_150">
<rect width="800" height="800" fill="white"/>
</clipPath>
</defs>
</svg>
